HIERARCHY
ROOT hip
{
  OFFSET 0 0 0
  CHANNELS 6 Xposition Yposition Zposition Zrotation Yrotation Xrotation
  JOINT abdomen
  {
    OFFSET 0 20.6881 -0.73152
    CHANNELS 3 Zrotation Xrotation Yrotation
    JOINT chest
    {
      OFFSET 0 11.7043 -0.48768
      CHANNELS 3 Zrotation Xrotation Yrotation
      JOINT neck
      {
        OFFSET 0 22.1894 -2.19456
        CHANNELS 3 Zrotation Xrotation Yrotation
        JOINT head
        {
          OFFSET -0.24384 7.07133 1.2192
          CHANNELS 3 Zrotation Xrotation Yrotation
          JOINT leftEye
          {
            OFFSET 4.14528 8.04674 8.04672
            CHANNELS 3 Zrotation Xrotation Yrotation
            End Site
            {
              OFFSET 1 0 0
            }
          }
          JOINT rightEye
          {
            OFFSET -3.6576 8.04674 8.04672
            CHANNELS 3 Zrotation Xrotation Yrotation
            End Site
            {
              OFFSET 1 0 0
            }
          }
        }
      }
      JOINT rCollar
      {
        OFFSET -2.68224 19.2634 -4.8768
        CHANNELS 3 Zrotation Xrotation Yrotation
        JOINT rShldr
        {
          OFFSET -8.77824 -1.95073 1.46304
          CHANNELS 3 Zrotation Xrotation Yrotation
          JOINT rForeArm
          {
            OFFSET -28.1742 -1.7115 0.48768
            CHANNELS 3 Zrotation Xrotation Yrotation
            JOINT rHand
            {
              OFFSET -22.5879 0.773209 7.07136
              CHANNELS 3 Zrotation Xrotation Yrotation
              JOINT rThumb1
              {
                OFFSET -1.2192 -0.487915 3.41376
                CHANNELS 3 Zrotation Xrotation Yrotation
                JOINT rThumb2
                {
                  OFFSET -3.37035 -0.52449 3.41376
                  CHANNELS 3 Zrotation Xrotation Yrotation
                  End Site
                  {
                    OFFSET -1.78271 -1.18214 1.43049
                  }
                }
              }
              JOINT rIndex1
              {
                OFFSET -7.75947 0.938293 5.60832
                CHANNELS 3 Zrotation Xrotation Yrotation
                JOINT rIndex2
                {
                  OFFSET -2.54057 -0.884171 1.56538
                  CHANNELS 3 Zrotation Xrotation Yrotation
                  End Site
                  {
                    OFFSET -1.62519 -0.234802 1.16502
                  }
                }
              }
              JOINT rMid1
              {
                OFFSET -8.24714 1.18213 3.41376
                CHANNELS 3 Zrotation Xrotation Yrotation
                JOINT rMid2
                {
                  OFFSET -3.10165 -0.590103 1.0647
                  CHANNELS 3 Zrotation Xrotation Yrotation
                  End Site
                  {
                    OFFSET -2.48547 -0.328903 0.83742
                  }
                }
              }
              JOINT rRing1
              {
                OFFSET -8.82822 0.546677 1.51678
                CHANNELS 3 Zrotation Xrotation Yrotation
                JOINT rRing2
                {
                  OFFSET -2.60934 -0.819778 -0.0198488
                  CHANNELS 3 Zrotation Xrotation Yrotation
                  End Site
                  {
                    OFFSET -2.33842 -0.294052 0.168128
                  }
                }
              }
              JOINT rPinky1
              {
                OFFSET -8.27202 -0.0477905 -0.4584
                CHANNELS 3 Zrotation Xrotation Yrotation
                JOINT rPinky2
                {
                  OFFSET -1.82734 -0.647385 -0.700984
                  CHANNELS 3 Zrotation Xrotation Yrotation
                  End Site
                  {
                    OFFSET -1.69225 -0.51767 -0.607171
                  }
                }
              }
            }
          }
        }
      }
      JOINT lCollar
      {
        OFFSET 2.68224 19.2634 -4.8768
        CHANNELS 3 Zrotation Xrotation Yrotation
        JOINT lShldr
        {
          OFFSET 8.77824 -1.95073 1.46304
          CHANNELS 3 Zrotation Xrotation Yrotation
          JOINT lForeArm
          {
            OFFSET 28.1742 -1.7115 0.48768
            CHANNELS 3 Zrotation Xrotation Yrotation
            JOINT lHand
            {
              OFFSET 22.5879 0.773209 7.07136
              CHANNELS 3 Zrotation Xrotation Yrotation
              JOINT lThumb1
              {
                OFFSET 1.2192 -0.487915 3.41376
                CHANNELS 3 Zrotation Xrotation Yrotation
                JOINT lThumb2
                {
                  OFFSET 3.37035 -0.52449 3.41376
                  CHANNELS 3 Zrotation Xrotation Yrotation
                  End Site
                  {
                    OFFSET 1.78271 -1.18214 1.43049
                  }
                }
              }
              JOINT lIndex1
              {
                OFFSET 7.75947 0.938293 5.60832
                CHANNELS 3 Zrotation Xrotation Yrotation
                JOINT lIndex2
                {
                  OFFSET 2.54057 -0.884171 1.56538
                  CHANNELS 3 Zrotation Xrotation Yrotation
                  End Site
                  {
                    OFFSET 1.62519 -0.234802 1.16502
                  }
                }
              }
              JOINT lMid1
              {
                OFFSET 8.24714 1.18213 3.41376
                CHANNELS 3 Zrotation Xrotation Yrotation
                JOINT lMid2
                {
                  OFFSET 3.10165 -0.590103 1.0647
                  CHANNELS 3 Zrotation Xrotation Yrotation
                  End Site
                  {
                    OFFSET 2.48547 -0.328903 0.83742
                  }
                }
              }
              JOINT lRing1
              {
                OFFSET 8.82822 0.546677 1.51678
                CHANNELS 3 Zrotation Xrotation Yrotation
                JOINT lRing2
                {
                  OFFSET 2.60934 -0.819778 -0.0198488
                  CHANNELS 3 Zrotation Xrotation Yrotation
                  End Site
                  {
                    OFFSET 2.33842 -0.294052 0.168128
                  }
                }
              }
              JOINT lPinky1
              {
                OFFSET 8.27202 -0.0477905 -0.4584
                CHANNELS 3 Zrotation Xrotation Yrotation
                JOINT lPinky2
                {
                  OFFSET 1.82734 -0.647385 -0.700984
                  CHANNELS 3 Zrotation Xrotation Yrotation
                  End Site
                  {
                    OFFSET 1.69225 -0.51767 -0.607171
                  }
                }
              }
            }
          }
        }
      }
    }
  }
  JOINT rButtock
  {
    OFFSET -8.77824 4.35084 1.2192
    CHANNELS 3 Zrotation Xrotation Yrotation
    JOINT rThigh
    {
      OFFSET 0 -1.70687 -2.19456
      CHANNELS 3 Zrotation Xrotation Yrotation
      JOINT rShin
      {
        OFFSET 0 -36.8199 0.73152
        CHANNELS 3 Zrotation Xrotation Yrotation
        JOINT rFoot
        {
          OFFSET 0.73152 -45.1104 -5.12064
          CHANNELS 3 Zrotation Xrotation Yrotation
          End Site
          {
            OFFSET -1.1221 -3.69964 12.103
          }
        }
      }
    }
  }
  JOINT lButtock
  {
    OFFSET 8.77824 4.35084 1.2192
    CHANNELS 3 Zrotation Xrotation Yrotation
    JOINT lThigh
    {
      OFFSET 0 -1.70687 -2.19456
      CHANNELS 3 Zrotation Xrotation Yrotation
      JOINT lShin
      {
        OFFSET 0 -36.8199 0.73152
        CHANNELS 3 Zrotation Xrotation Yrotation
        JOINT lFoot
        {
          OFFSET -0.73152 -45.1104 -5.12064
          CHANNELS 3 Zrotation Xrotation Yrotation
          End Site
          {
            OFFSET 1.1221 -3.69964 12.103
          }
        }
      }
    }
  }
}
MOTION
Frames:	5
Frame Time:	0.03333
-98.7007 70.6878 -51.058400000000006 -135.713698 -87.194438 136.499244 -6.944539 0.835116 -96.82365 14.841826 8.869043 111.628552 3.335243 11.777166 100.602135 -39.787126 26.296533 -108.633654 152.722855 10.077819 -39.941571 27.377244 5.972391 24.177835 0.489929 0.083854 0.137655 -19.047544 -73.185989 -19.284451 -9.721444 61.193462 96.415179 4.707134 28.585808 5.218062 7.01283 -6.27166 11.502408 -81.58378 -28.181023 -84.16161 2.784309 -53.968489 -26.083086 -8.147685 33.52576 8.4742 10.289049 -21.092819 2.09715 149.850872 33.557379 175.271733 -64.771127 -62.377196 -95.536314 17.736852 1.164544 8.405852 69.884575 74.181647 -85.780195 -0.653022 -5.571146 38.325659 -8.325337 -0.880292 -15.122604 -165.29259 -2.045686 160.409331 123.438813 -46.886369 147.087372 -29.178782 -41.471942 -22.993963 -77.567746 -56.700334 -23.652611 163.043494 -1.939072 -54.179558 53.570042 20.036542 -49.684184 16.506912 -68.099241 108.760304 1.34825 17.236954 -11.440175 10.645957 23.520555 31.559967 -170.896823 0.794784 145.427747 54.219624 22.623528 40.729504 92.963596 -59.472725 84.747731 152.89714 -17.015147 105.505317 84.72474 46.873566 93.85522 -153.394989 43.006006 143.70883 36.448021 -28.378291 151.466349 -74.924594 -74.929828 11.42323 86.579306 34.211841 4.325316 -84.584679 -15.54193 -0.0 12.931821 57.306626 -168.075685 -83.64588 20.369299 -170.753936
-99.7894 70.1378 -53.361599999999996 -133.64256 -87.542856 132.857567 -7.879156 5.032326 -100.185928 15.441855 10.125069 112.698326 4.141284 7.749962 98.41369 -36.307528 26.162713 -105.197397 151.644642 9.650364 -36.954315 36.625233 6.760242 20.236692 -137.859396 36.214227 144.900816 27.754814 1.834655 7.440916 171.268291 -38.83107 -108.835318 -3.248737 46.102009 8.754556 176.943591 -15.0791 79.510515 108.136085 -3.052477 24.566652 -9.120076 -11.614408 -17.527334 178.208121 -47.417661 102.183692 -0.529117 2.65962 2.543122 -179.184887 -0.383393 -179.20584 -37.319526 74.377967 68.227102 99.738451 83.786973 -95.585998 -72.465759 -17.446965 -28.665447 100.557465 60.311208 -36.573425 -15.153834 -25.272077 -7.544134 -158.745869 -7.471157 177.043759 -3.543748 -6.954025 53.064985 -152.621476 -30.058705 -139.590818 85.33739 44.882705 -48.215204 19.041959 -70.332379 97.464242 142.708871 -10.00377 -92.589575 -41.800665 36.797192 -35.315946 47.364169 53.800416 -52.316998 -37.112082 36.964603 49.918581 104.357863 -37.993006 83.605608 -95.665203 21.458587 49.631627 148.298879 6.429309 177.596998 15.69641 -9.191626 -51.295447 22.311036 -21.288138 -0.0 -31.695788 -28.288014 -94.035481 -39.398386 -0.690654 98.506216 -89.050851 13.441612 1.174784 87.519595 34.404732 2.169059 -84.085281 -16.620171 14.65587 35.739068 41.380223 29.894433 -114.198886 26.248172 10.740223
-100.46470000000001 69.7322 -55.6087 -63.713888 -87.404303 57.385781 -9.026844 13.785655 -146.309177 0.586566 17.491464 157.328985 2.381592 -1.313428 100.794093 -29.014246 26.102465 -96.220385 160.424652 1.534447 -8.877639 36.347926 6.832771 20.613311 6.17283 -1.024096 9.305941 -8.835092 37.760925 -8.666707 -23.094745 -52.378149 62.592723 3.746377 14.850589 8.711894 -165.655307 -11.287032 79.07289 10.452917 0.653605 71.900242 -19.770788 20.798005 0.269083 -84.76359 49.513807 69.448015 -152.740992 -23.394287 138.398977 -17.441783 7.301398 51.839517 -124.930344 -4.242515 174.654858 -135.442715 -33.620464 -177.030496 -23.864522 28.574632 -45.904546 -92.257531 38.323605 152.176736 -2.591936 14.960723 -10.898553 -126.820323 66.786979 127.497053 5.366909 21.869212 52.263054 -142.951936 -39.356003 -130.322188 172.435938 -14.332098 -101.739085 -162.050454 -58.723133 -64.470659 135.067274 2.71602 -92.630483 164.743677 -62.42508 -58.380688 166.236046 -51.967356 -145.887612 -114.010724 -37.426785 -67.712847 72.012895 -34.855727 56.747528 -167.229559 64.069053 89.918198 103.448108 20.945016 -130.927756 49.099617 23.956331 -146.971484 115.850718 61.427789 66.949994 -179.88541 35.470156 179.802527 4.305358 -50.505281 -43.80337 71.882344 53.422497 -177.414761 175.402415 32.485642 7.471764 -163.516254 24.214202 77.536042 55.705276 23.445098 62.176386 -174.060015 32.08777 94.644647
-101.1472 69.174 -57.818000000000005 -22.775145 -82.635769 18.814513 -6.897266 17.252927 -33.265559 18.008303 -15.401535 43.685308 -10.76725 -8.843027 -9.57429 -7.389897 -18.085446 -2.880087 151.692539 4.9311 -19.3791 31.057744 5.895056 20.995951 -131.448643 34.522853 140.361529 -135.793233 -8.5812 175.896816 -15.884035 22.962344 92.72063 5.609601 15.66514 2.765887 -146.649014 2.778541 73.667566 -48.319565 -6.739811 90.628065 -154.301296 12.333682 111.823242 1.603828 -2.038038 7.959687 -37.170613 44.610597 53.133182 5.991875 -51.304571 -60.457476 28.413422 -14.144961 5.863295 162.231168 -44.440456 172.19891 -110.810354 -12.615986 -55.086779 63.033595 8.656291 -24.383699 -13.838782 -43.557346 0.587222 19.948261 -1.172686 -4.896608 81.008517 49.544072 -80.22374 -28.273185 -31.759297 -14.557564 173.490359 -11.531293 -99.504535 -12.004664 -21.527066 -16.863725 26.770912 14.183917 -28.818275 -24.837742 1.371044 56.035713 159.278769 -11.655028 -136.666474 -170.228726 -47.348098 -86.980725 27.845417 6.368195 19.798648 124.119424 -35.185607 -154.726738 106.871418 13.760393 -125.626771 -79.516881 -2.579535 -60.536574 -45.744146 47.090859 -61.022571 84.452191 -14.065182 133.560686 51.851854 -4.339232 8.89491 -64.641461 -39.069578 -140.134646 -81.90169 47.662941 -5.300225 107.570949 -0.424993 -91.742952 -40.969944 -52.558586 -122.17039 -171.158702 -42.188062 86.310374
-101.88589999999999 69.0334 -59.66780000000001 -17.058493 -78.533411 16.544499 -4.690904 13.219868 0.0 1.695204 -23.075999 7.506064 -12.67532 8.77668 -116.567455 29.071469 6.833918 96.257804 119.990966 10.424422 -17.953938 23.257536 5.674315 27.079763 22.16967 -85.846755 -6.200223 87.544572 -65.899555 92.145604 -26.08784 -15.199841 -120.075439 137.236892 -48.811211 123.736067 13.89614 -9.388539 12.945767 -33.908328 -18.691189 -37.810616 -152.424899 21.189568 106.105226 91.81244 -49.615265 51.867047 63.889153 -55.828963 20.763523 -9.78473 -44.766357 14.154797 -117.644463 9.136749 168.093783 -133.331773 69.270872 -170.497816 -69.108128 -28.048027 -28.266653 72.813949 48.245289 -23.249469 80.311809 61.848551 -83.600696 68.905994 -79.495664 101.706805 10.508144 -3.307548 -24.463257 -9.429893 13.734902 4.839007 1.676869 -3.180189 4.724813 147.826896 -67.151906 -154.496469 48.02677 24.17505 -43.879071 -40.38036 3.271539 45.241715 160.700679 -11.883447 -130.123665 176.152435 -39.690646 -93.605901 22.364002 4.189228 15.306792 107.964305 40.872086 -141.708475 -35.093793 -42.693947 -81.386679 134.678731 -1.628437 38.674203 87.304548 17.904273 46.827735 -121.217645 10.392344 -114.973363 -62.586852 -4.330607 -54.731452 87.098957 -38.05862 170.14727 62.671498 26.063497 7.248517 -62.833648 -31.754246 21.058491 50.401284 48.810171 48.037791 -24.268069 -2.255665 -89.30002
